<svg xmlns="http://www.w3.org/2000/svg" width="900" height="675" viewBox="0 0 900 675">
  <defs>
    <pattern id="lines" x="0" y="0" width="40" height="40" patternUnits="userSpaceOnUse">
      <line x1="0" y1="40" x2="40" y2="0" stroke="#C65A3A" stroke-width="0.8" opacity="0.12"/>
    </pattern>
  </defs>
  <rect width="900" height="675" fill="#3D2B1F"/>
  <rect width="900" height="675" fill="url(#lines)"/>
  <rect x="0" y="500" width="900" height="175" fill="#2B2B2B" opacity="0.5"/>
  <!-- Decorative -->
  <rect x="300" y="160" width="300" height="280" fill="none" stroke="#E7B53E" stroke-width="1" opacity="0.25"/>
  <rect x="320" y="180" width="260" height="240" fill="none" stroke="#C65A3A" stroke-width="1" opacity="0.2"/>
  <!-- Notebook/map lines -->
  <line x1="360" y1="230" x2="540" y2="230" stroke="#F2EFE8" stroke-width="1.5" opacity="0.5"/>
  <line x1="360" y1="260" x2="500" y2="260" stroke="#F2EFE8" stroke-width="1.5" opacity="0.4"/>
  <line x1="360" y1="290" x2="520" y2="290" stroke="#F2EFE8" stroke-width="1.5" opacity="0.4"/>
  <line x1="360" y1="320" x2="480" y2="320" stroke="#F2EFE8" stroke-width="1.5" opacity="0.3"/>
  <circle cx="380" cy="370" r="8" fill="#E7B53E" opacity="0.7"/>
  <circle cx="460" cy="355" r="6" fill="#C65A3A" opacity="0.7"/>
  <circle cx="510" cy="375" r="7" fill="#E7B53E" opacity="0.5"/>
  <line x1="380" y1="370" x2="460" y2="355" stroke="#F2EFE8" stroke-width="1" opacity="0.4"/>
  <line x1="460" y1="355" x2="510" y2="375" stroke="#F2EFE8" stroke-width="1" opacity="0.4"/>
  <!-- Label -->
  <text x="450" y="555" font-family="Georgia, serif" font-size="22" fill="#F2EFE8" text-anchor="middle" opacity="0.9">Cartografias do Possível</text>
  <text x="450" y="585" font-family="Arial, sans-serif" font-size="13" fill="#E7B53E" text-anchor="middle" opacity="0.7">Atibaia · Residência · 2024</text>
  <text x="450" y="615" font-family="Arial, sans-serif" font-size="11" fill="#F2EFE8" text-anchor="middle" opacity="0.4">[ imagem ilustrativa — foto real a definir ]</text>
</svg>
