<svg xmlns="http://www.w3.org/2000/svg" width="800" height="600" viewBox="0 0 800 600">
  <defs>
    <pattern id="leaf" x="0" y="0" width="50" height="50" patternUnits="userSpaceOnUse">
      <circle cx="25" cy="25" r="1.5" fill="#C65A3A" opacity="0.12"/>
    </pattern>
  </defs>
  <rect width="800" height="600" fill="#3D2B1F"/>
  <rect width="800" height="600" fill="url(#leaf)"/>
  <!-- Forest/hills suggestion -->
  <path d="M 0 300 L 120 200 L 200 260 L 300 180 L 380 240 L 460 170 L 540 230 L 620 190 L 700 240 L 800 200 L 800 600 L 0 600 Z" fill="#2A1F15" opacity="0.7"/>
  <path d="M 0 350 L 100 280 L 180 320 L 260 270 L 340 300 L 430 260 L 510 295 L 600 265 L 680 290 L 800 260 L 800 600 L 0 600 Z" fill="#1F1610" opacity="0.5"/>
  <!-- Sun/light burst top center -->
  <circle cx="400" cy="160" r="60" fill="#E7B53E" opacity="0.12"/>
  <circle cx="400" cy="160" r="40" fill="#E7B53E" opacity="0.1"/>
  <!-- Label -->
  <rect x="0" y="480" width="800" height="120" fill="#2B2B2B" opacity="0.55"/>
  <text x="400" y="525" font-family="Georgia, serif" font-size="20" fill="#F2EFE8" text-anchor="middle" opacity="0.9">Atibaia</text>
  <text x="400" y="553" font-family="Arial, sans-serif" font-size="12" fill="#E7B53E" text-anchor="middle" opacity="0.7">Residências artísticas e imersão criativa</text>
  <text x="400" y="577" font-family="Arial, sans-serif" font-size="10" fill="#F2EFE8" text-anchor="middle" opacity="0.35">[ foto real a definir ]</text>
</svg>
